<svg xmlns="http://www.w3.org/2000/svg" viewBox="0 0 24 24" fill="white">
  <path d="M16.75 13.96c-.25-.12-1.47-.72-1.7-.8-.23-.08-.39-.12-.56.12-.17.25-.64.8-.79.96-.15.17-.29.19-.54.06-.25-.12-1.05-.39-2-1.23-.74-.66-1.23-1.47-1.38-1.72-.14-.25-.02-.38.11-.5.11-.11.25-.29.37-.43.12-.14.17-.25.25-.42.08-.17.04-.31-.02-.43-.06-.12-.56-1.35-.77-1.85-.2-.48-.4-.41-.56-.42h-.48c-.17 0-.43.06-.66.31-.23.25-.87.85-.87 2.07 0 1.22.89 2.4 1.01 2.57.12.17 1.75 2.67 4.23 3.74.59.25 1.05.4 1.41.51.59.19 1.12.16 1.54.1.47-.07 1.47-.6 1.68-1.18.21-.58.21-1.08.15-1.18-.06-.1-.23-.16-.48-.28zM12.04 2C6.58 2 2.13 6.45 2.13 11.91c0 1.93.5 3.72 1.37 5.3L2 22l4.91-1.29c1.53.83 3.24 1.27 5.05 1.27h.01c5.46 0 9.91-4.45 9.91-9.91 0-2.64-1.03-5.12-2.9-6.99A9.82 9.82 0 0 0 12.04 2zm0 18.02c-1.63 0-3.22-.44-4.61-1.26l-.33-.2-2.92.77.78-2.85-.21-.35a8.02 8.02 0 1 1 7.29 3.89z"></path>
</svg>
